<svg width="25" height="25" viewBox="0 0 25 25" fill="none" xmlns="http://www.w3.org/2000/svg">
<path d="M12.5825 8.27002C11.7459 8.27002 10.9281 8.5181 10.2325 8.9829C9.53686 9.4477 8.99469 10.1083 8.67453 10.8813C8.35437 11.6542 8.2706 12.5047 8.43382 13.3253C8.59703 14.1458 8.9999 14.8995 9.59148 15.4911C10.1831 16.0827 10.9368 16.4855 11.7573 16.6487C12.5778 16.812 13.4284 16.7282 14.2013 16.408C14.9742 16.0879 15.6349 15.5457 16.0997 14.8501C16.5645 14.1545 16.8125 13.3366 16.8125 12.5C16.8115 11.3785 16.3655 10.3032 15.5724 9.51013C14.7794 8.71708 13.7041 8.27108 12.5825 8.27002Z" fill="#17191F"/>
<path d="M18.484 2H6.68201C5.4626 2.00106 4.29344 2.48594 3.43119 3.34819C2.56894 4.21044 2.08407 5.37959 2.08301 6.599V18.4C2.0838 19.6196 2.56856 20.789 3.43084 21.6515C4.29312 22.5139 5.46243 22.9989 6.68201 23H18.484C19.7034 22.9989 20.8726 22.5141 21.7348 21.6518C22.5971 20.7896 23.0819 19.6204 23.083 18.401V6.6C23.0822 5.38042 22.5975 4.21101 21.7352 3.34854C20.8729 2.48607 19.7036 2.00106 18.484 2ZM18.5 7.5C18.3022 7.5 18.1089 7.44135 17.9444 7.33147C17.78 7.22159 17.6518 7.06541 17.5761 6.88268C17.5004 6.69996 17.4806 6.49889 17.5192 6.30491C17.5578 6.11093 17.653 5.93275 17.7929 5.79289C17.9328 5.65304 18.1109 5.5578 18.3049 5.51921C18.4989 5.48063 18.7 5.50043 18.8827 5.57612C19.0654 5.65181 19.2216 5.77998 19.3315 5.94443C19.4414 6.10888 19.5 6.30222 19.5 6.5C19.5 6.76522 19.3947 7.01957 19.2071 7.20711C19.0196 7.39464 18.7652 7.5 18.5 7.5ZM12.583 17.73C11.5486 17.73 10.5374 17.4233 9.67737 16.8486C8.81731 16.2739 8.14696 15.4571 7.75112 14.5014C7.35527 13.5458 7.2517 12.4942 7.4535 11.4797C7.6553 10.4652 8.15341 9.53326 8.88484 8.80183C9.61627 8.0704 10.5482 7.57229 11.5627 7.37049C12.5772 7.16869 13.6288 7.27226 14.5844 7.66811C15.5401 8.06396 16.3569 8.7343 16.9316 9.59437C17.5063 10.4544 17.813 11.4656 17.813 12.5C17.8117 13.8867 17.2602 15.2162 16.2797 16.1967C15.2992 17.1772 13.9697 17.7287 12.583 17.73Z" fill="#17191F"/>
</svg>
