<svg width="25" height="24" viewBox="0 0 25 24" fill="none" xmlns="http://www.w3.org/2000/svg">
<g clip-path="url(#clip0_690_19)">
<path d="M5.70607 7.79799V24H0.31107V7.79799H5.70607ZM6.04907 2.79599C6.05007 2.82499 6.05107 2.85899 6.05107 2.89399C6.05107 3.64299 5.73307 4.31699 5.22507 4.78899L5.22307 4.78999C4.67807 5.28799 3.94907 5.59299 3.14807 5.59299C3.09907 5.59299 3.04907 5.59199 3.00007 5.58999H3.00707H2.97407C2.93307 5.59199 2.88507 5.59299 2.83707 5.59299C2.05307 5.59299 1.34107 5.28699 0.81207 4.78899L0.81307 4.78999C0.30907 4.30199 -0.00292969 3.61999 -0.00292969 2.86499C-0.00292969 2.84099 -0.00292969 2.81699 -0.00192969 2.79199V2.79599C-0.00292969 2.77499 -0.00292969 2.75099 -0.00292969 2.72699C-0.00292969 1.96499 0.32107 1.27899 0.83807 0.797986L0.84007 0.796986C1.38407 0.301986 2.11107 -0.00201416 2.90807 -0.00201416C2.95407 -0.00201416 2.99907 -0.00101416 3.04507 0.00098584H3.03907C3.08207 -0.00101416 3.13107 -0.00201416 3.18207 -0.00201416C3.96707 -0.00201416 4.68207 0.300986 5.21607 0.795986L5.21407 0.793986C5.72907 1.29099 6.04907 1.98699 6.04907 2.75799V2.79999V2.79799V2.79599ZM25.1111 14.716V24H19.7331V15.335C19.7381 15.256 19.7401 15.164 19.7401 15.072C19.7401 14.176 19.4911 13.339 19.0581 12.625L19.0701 12.646C18.6431 12.05 17.9531 11.667 17.1741 11.667C17.1141 11.667 17.0541 11.669 16.9941 11.674H17.0021C16.9751 11.673 16.9441 11.672 16.9131 11.672C16.2931 11.672 15.7231 11.885 15.2721 12.242L15.2781 12.238C14.8251 12.605 14.4701 13.074 14.2461 13.613L14.2381 13.636C14.1221 13.991 14.0561 14.399 14.0561 14.823C14.0561 14.871 14.0571 14.919 14.0591 14.967V14.96V24.002H8.68107C8.70307 19.6533 8.71407 16.1273 8.71407 13.424C8.71407 10.7207 8.70874 9.10765 8.69807 8.58499L8.68207 7.79999H14.0601V10.154H14.0271C14.2411 9.80899 14.4621 9.50999 14.7051 9.22999L14.6971 9.23899C14.9781 8.92999 15.2801 8.65099 15.6051 8.40099L15.6211 8.38899C16.0251 8.07799 16.4991 7.83399 17.0131 7.68499L17.0431 7.67799C17.5811 7.51699 18.2001 7.42399 18.8401 7.42399H18.9191H18.9151C18.9861 7.42099 19.0691 7.41899 19.1521 7.41899C20.8331 7.41899 22.3471 8.13299 23.4081 9.27499L23.4111 9.27899C24.5457 10.5163 25.1131 12.3283 25.1131 14.715L25.1111 14.716Z" fill="#17191F"/>
</g>
<defs>
<clipPath id="clip0_690_19">
<rect width="25" height="24" fill="white"/>
</clipPath>
</defs>
</svg>
