<svg width="181" height="45" viewBox="0 0 181 45" fill="none" xmlns="http://www.w3.org/2000/svg">
<g clip-path="url(#clip0_2111_1430)">
<path d="M166 9C157.729 9 151 14.8315 151 22C151.012 24.6139 151.901 27.1483 153.522 29.1982C152.251 31.3584 150.817 33.4183 149.231 35.36C149.11 35.506 149.032 35.6837 149.008 35.8722C148.984 36.0607 149.014 36.2523 149.094 36.4244C149.175 36.5965 149.303 36.742 149.463 36.844C149.624 36.9459 149.81 37 150 37C153.785 36.932 157.5 35.9751 160.847 34.2065C162.513 34.7347 164.252 35.0024 166 35C174.271 35 181 29.1685 181 22C181 14.8315 174.271 9 166 9Z" fill="#E6ECFF"/>
<path d="M166 23C166.552 23 167 22.5523 167 22C167 21.4477 166.552 21 166 21C165.448 21 165 21.4477 165 22C165 22.5523 165.448 23 166 23Z" fill="#4966F6"/>
<path d="M172 23C172.552 23 173 22.5523 173 22C173 21.4477 172.552 21 172 21C171.448 21 171 21.4477 171 22C171 22.5523 171.448 23 172 23Z" fill="#4966F6"/>
<path d="M160 23C160.552 23 161 22.5523 161 22C161 21.4477 160.552 21 160 21C159.448 21 159 21.4477 159 22C159 22.5523 159.448 23 160 23Z" fill="#4966F6"/>
</g>
<path d="M8.82 36.648C7.308 36.648 5.976 36.384 4.824 35.856C3.672 35.328 2.784 34.596 2.16 33.66C1.536 32.7 1.224 31.596 1.224 30.348C1.224 29.292 1.44 28.332 1.872 27.468C2.328 26.604 2.928 25.92 3.672 25.416C4.44 24.912 5.28 24.66 6.192 24.66C7.032 24.66 7.74 24.876 8.316 25.308C8.892 25.716 9.252 26.292 9.396 27.036C8.148 27.036 7.152 27.372 6.408 28.044C5.664 28.692 5.292 29.58 5.292 30.708C5.292 31.74 5.604 32.568 6.228 33.192C6.852 33.816 7.68 34.128 8.712 34.128C9.984 34.128 11.028 33.708 11.844 32.868C12.684 32.004 13.104 30.924 13.104 29.628C13.104 28.5 12.792 27.432 12.168 26.424C11.544 25.416 10.608 24.192 9.36 22.752C8.064 21.264 7.08 19.992 6.408 18.936C5.76 17.856 5.436 16.68 5.436 15.408C5.436 14.16 5.784 13.044 6.48 12.06C7.176 11.052 8.136 10.26 9.36 9.684C10.584 9.108 11.964 8.82 13.5 8.82C15.444 8.82 16.992 9.276 18.144 10.188C19.32 11.1 19.908 12.324 19.908 13.86C19.908 14.868 19.656 15.684 19.152 16.308C18.648 16.932 17.988 17.244 17.172 17.244C16.26 17.244 15.528 16.872 14.976 16.128C15.432 15.792 15.792 15.348 16.056 14.796C16.32 14.244 16.452 13.668 16.452 13.068C16.452 12.3 16.224 11.688 15.768 11.232C15.312 10.776 14.688 10.548 13.896 10.548C12.936 10.548 12.144 10.896 11.52 11.592C10.92 12.264 10.62 13.128 10.62 14.184C10.62 15.144 10.896 16.044 11.448 16.884C12 17.7 12.864 18.756 14.04 20.052C15 21.084 15.768 21.972 16.344 22.716C16.944 23.46 17.448 24.324 17.856 25.308C18.288 26.268 18.504 27.312 18.504 28.44C18.504 29.976 18.072 31.368 17.208 32.616C16.368 33.864 15.204 34.848 13.716 35.568C12.252 36.288 10.62 36.648 8.82 36.648ZM24.0953 36.216C22.9433 36.216 22.0073 35.856 21.2873 35.136C20.5913 34.416 20.2432 33.336 20.2432 31.896C20.2432 31.296 20.3392 30.516 20.5312 29.556L22.9793 18H28.1633L25.5713 30.24C25.4993 30.6 25.4633 30.936 25.4633 31.248C25.4633 32.232 25.8233 32.724 26.5433 32.724C27.2153 32.724 27.7913 32.448 28.2713 31.896C28.7513 31.32 29.1353 30.54 29.4233 29.556L31.8713 18H37.0553L34.4633 30.24C34.3673 30.6 34.3193 30.984 34.3193 31.392C34.3193 31.872 34.4273 32.22 34.6433 32.436C34.8833 32.628 35.2673 32.724 35.7953 32.724C36.4673 32.724 37.0433 32.436 37.5233 31.86C38.0273 31.284 38.4233 30.516 38.7112 29.556H40.2233C39.3353 32.148 38.2313 33.912 36.9113 34.848C35.6153 35.76 34.3073 36.216 32.9873 36.216C31.9553 36.216 31.1273 35.928 30.5033 35.352C29.9033 34.776 29.5433 33.924 29.4233 32.796C28.6073 34.116 27.7433 35.016 26.8313 35.496C25.9433 35.976 25.0313 36.216 24.0953 36.216ZM41.155 18H46.339L45.871 20.232C46.687 19.512 47.419 18.96 48.067 18.576C48.739 18.192 49.459 18 50.227 18C50.995 18 51.595 18.264 52.027 18.792C52.483 19.32 52.711 19.956 52.711 20.7C52.711 21.396 52.483 22.008 52.027 22.536C51.571 23.064 50.935 23.328 50.119 23.328C49.591 23.328 49.231 23.208 49.039 22.968C48.871 22.704 48.739 22.332 48.643 21.852C48.571 21.54 48.499 21.312 48.427 21.168C48.355 21.024 48.223 20.952 48.031 20.952C47.527 20.952 47.095 21.06 46.735 21.276C46.399 21.468 45.955 21.816 45.403 22.32L42.523 36H37.339L41.155 18ZM56.3462 36.216C54.9542 36.216 53.8622 35.868 53.0702 35.172C52.3022 34.452 51.9182 33.384 51.9182 31.968C51.9182 31.392 51.9782 30.816 52.0982 30.24L54.6902 18H59.8742L57.2822 30.24C57.1622 30.84 57.1022 31.272 57.1022 31.536C57.1022 32.328 57.5102 32.724 58.3262 32.724C59.4302 32.724 60.4502 32.028 61.3862 30.636C62.3462 29.244 63.1142 27.588 63.6902 25.668C64.2662 23.748 64.5542 22.092 64.5542 20.7C64.5062 20.82 64.3502 20.916 64.0862 20.988C63.8222 21.036 63.5942 21.06 63.4022 21.06C62.9942 21.06 62.6702 20.868 62.4302 20.484C62.2142 20.1 62.1062 19.68 62.1062 19.224C62.1062 18.648 62.2862 18.18 62.6462 17.82C63.0302 17.46 63.5942 17.28 64.3382 17.28C65.1302 17.28 65.7062 17.58 66.0662 18.18C66.4262 18.756 66.6062 19.5 66.6062 20.412C66.6062 22.572 66.2342 24.888 65.4902 27.36C64.7462 29.808 63.6062 31.896 62.0702 33.624C60.5342 35.352 58.6262 36.216 56.3462 36.216ZM72.2964 36.216C70.5204 36.216 69.1404 35.76 68.1564 34.848C67.1724 33.912 66.6804 32.46 66.6804 30.492C66.6804 28.836 67.0044 27.012 67.6524 25.02C68.3004 23.028 69.3564 21.312 70.8204 19.872C72.2844 18.408 74.1444 17.676 76.4004 17.676C79.0404 17.676 80.3604 18.828 80.3604 21.132C80.3604 22.476 79.9764 23.712 79.2084 24.84C78.4404 25.968 77.4204 26.88 76.1484 27.576C74.8764 28.248 73.5204 28.632 72.0804 28.728C72.0324 29.448 72.0084 29.928 72.0084 30.168C72.0084 31.344 72.2124 32.148 72.6204 32.58C73.0284 32.988 73.6884 33.192 74.6004 33.192C75.8964 33.192 77.0004 32.892 77.9124 32.292C78.8484 31.692 79.8684 30.78 80.9724 29.556H82.1964C79.5324 33.996 76.2324 36.216 72.2964 36.216ZM72.3684 27C73.2564 26.952 74.0964 26.64 74.8884 26.064C75.7044 25.488 76.3524 24.756 76.8324 23.868C77.3364 22.98 77.5884 22.044 77.5884 21.06C77.5884 20.076 77.2884 19.584 76.6884 19.584C75.8244 19.584 74.9724 20.34 74.1324 21.852C73.3164 23.364 72.7284 25.08 72.3684 27ZM86.5808 45C85.4528 45 84.4568 44.628 83.5928 43.884C82.7528 43.164 82.3328 42.24 82.3328 41.112C82.3328 40.056 82.5968 39.192 83.1248 38.52C83.6528 37.848 84.3368 37.32 85.1768 36.936C86.0168 36.552 87.1448 36.144 88.5608 35.712L88.9208 34.128C87.6968 35.52 86.2328 36.216 84.5288 36.216C83.3768 36.216 82.4408 35.856 81.7208 35.136C81.0248 34.416 80.6768 33.336 80.6768 31.896C80.6768 31.296 80.7728 30.516 80.9648 29.556L83.4128 18H88.5968L86.0048 30.24C85.9328 30.528 85.8968 30.828 85.8968 31.14C85.8968 32.196 86.2568 32.724 86.9768 32.724C87.6488 32.724 88.2248 32.448 88.7048 31.896C89.1848 31.32 89.5688 30.54 89.8568 29.556L92.3048 18H97.5248L93.1328 38.88C92.6528 41.184 91.8008 42.78 90.5768 43.668C89.3768 44.556 88.0448 45 86.5808 45ZM85.7528 41.796C86.1848 41.796 86.5928 41.568 86.9768 41.112C87.3608 40.68 87.6608 39.972 87.8768 38.988L88.3088 36.864C87.0368 37.296 86.0528 37.8 85.3568 38.376C84.6608 38.952 84.3128 39.696 84.3128 40.608C84.3128 40.896 84.4568 41.16 84.7448 41.4C85.0328 41.664 85.3688 41.796 85.7528 41.796ZM110.303 36.252C107.927 36.252 106.127 35.676 104.903 34.524C103.703 33.348 103.103 31.62 103.103 29.34C103.103 28.212 103.271 26.952 103.607 25.56L107.279 10.944C105.215 11.496 103.607 12.48 102.455 13.896C101.303 15.288 100.727 16.824 100.727 18.504C100.727 19.68 101.039 20.82 101.663 21.924C100.295 21.924 99.2274 21.588 98.4594 20.916C97.7154 20.244 97.3434 19.296 97.3434 18.072C97.3434 16.512 97.9674 15.024 99.2154 13.608C100.487 12.168 102.167 11.016 104.255 10.152C106.343 9.288 108.551 8.856 110.879 8.856C111.695 8.856 112.367 8.916 112.895 9.036L108.503 25.668C108.095 27.18 107.891 28.476 107.891 29.556C107.891 31.836 108.827 32.976 110.699 32.976C113.387 32.976 115.247 30.504 116.279 25.56L119.879 8.928H124.955L121.463 25.56C120.695 29.088 119.363 31.752 117.467 33.552C115.595 35.352 113.207 36.252 110.303 36.252ZM126.029 16.668H131.213L130.637 19.368C131.837 18.336 133.241 17.82 134.849 17.82C136.193 17.82 137.261 18.264 138.053 19.152C138.845 20.04 139.241 21.492 139.241 23.508C139.241 25.404 138.965 27.324 138.413 29.268C137.861 31.188 136.925 32.832 135.605 34.2C134.285 35.544 132.545 36.216 130.385 36.216C128.849 36.216 127.829 35.784 127.325 34.92L125.453 43.704L120.017 45L126.029 16.668ZM129.269 33.084C130.421 33.084 131.369 32.544 132.113 31.464C132.881 30.384 133.433 29.1 133.769 27.612C134.129 26.1 134.309 24.696 134.309 23.4C134.309 21.408 133.709 20.412 132.509 20.412C132.077 20.412 131.633 20.568 131.177 20.88C130.745 21.192 130.361 21.624 130.025 22.176L127.901 32.256C128.093 32.808 128.549 33.084 129.269 33.084Z" fill="#4966F6"/>
<defs>
<clipPath id="clip0_2111_1430">
<rect width="32" height="32" fill="white" transform="translate(149 7)"/>
</clipPath>
</defs>
</svg>
